# xmcd
#
# Track frame offsets:
# 150
# 11138
# 24912
# 38428
# 55944
# 80638
# 90139
# 106566
# 114134
# 121947
# 145740
# 156301
# 176950
# 192256
# 201582
# 214389
# 228224
# 243327
# 265985
# 288947
# 307032
# 318930
#
# Disc length: 4398 seconds
#
# Revision: 0
# Processed by: cddbd v1.4PL0 Copyright (c) Steve Scherf et al.
# Submitted via: Audion 3.0.2 (http://www.panic.com/audion/)
#
DISCID=26112c16
DTITLE=Reed Island Rambers - Goin' Back
DYEAR=1900
DGENRE=
TTITLE0=Shakin' Down the Acorns
TTITLE1=Goin' Back to the Yew Piney Mountains
TTITLE2=Yew Piney Mountan
TTITLE3=Sally Will You Marry Me/ Elk River Blues
TTITLE4=Coo Coo
TTITLE5=Ways of the World
TTITLE6=Queen of the Earth, Child of the Skies
TTITLE7=Cranberry Rock
TTITLE8=George Booker
TTITLE9=Wild Hog in the Woods
TTITLE10=Indian Squaw
TTITLE11=Spring Time Waltz/ Paris Waltz
TTITLE12=The Rainy Day/ Paddy on the Turnpike
TTITLE13=Sally Comin' Through the Rye
TTITLE14=Falls of Richmond
TTITLE15=Liza Jane
TTITLE16=Billy in the Lowland/ Shippinport
TTITLE17=Cherry River Line
TTITLE18=Over the Waves
TTITLE19=Greasy Coat/ Elzic's Farewell
TTITLE20=Sally Ann
TTITLE21=Mouth of Stinson
EXTD=
EXTT0=
EXTT1=
EXTT2=
EXTT3=
EXTT4=
EXTT5=
EXTT6=
EXTT7=
EXTT8=
EXTT9=
EXTT10=
EXTT11=
EXTT12=
EXTT13=
EXTT14=
EXTT15=
EXTT16=
EXTT17=
EXTT18=
EXTT19=
EXTT20=
EXTT21=
PLAYORDER=
